<svg class="svg-illustration evaneos-veraneos" xmlns="http://www.w3.org/2000/svg" viewBox="0 0 369.3 81"><path d="M39.9 0C17.9 0 0 18.1 0 40.5c0 2.5.2 5 .7 7.4v.1c.4 2.1.9 4.1 1.6 6.1 1.9 7.3 3.3 14.3 0 21.9L0 81l4.9-1.3c8.9-2.5 13.3-3.4 21.5-1.1 1.1.4 2.3.8 3.5 1.1.2.1.3.1.4.1 3.1.8 6.3 1.2 9.7 1.2 22 0 39.9-18.1 39.9-40.5S62 0 39.9 0m2.5 62.9c-13.6 0-24.6-11.2-24.6-25s11-25 24.6-25C56 12.9 67 24.1 67 37.9c.1 13.8-11 25-24.6 25m64.5-16.6h-6.5c.7 5.1 5.3 8.3 11.1 8.3 4.1 0 9-.8 12.2-3.8h.4v3.1c0 5.2-3.5 9.1-14.4 9.1-9.9 0-19.6-7.9-19.6-20.3 0-13.5 8.1-21.9 19.5-21.9 8.3 0 15.9 6 15.9 15.6.1 7.5-5.5 9.9-18.6 9.9m1.8-17.1c-4.8 0-8.1 4-8.3 8.6l-.1 1.3h4.4c9.4 0 11.5-1 11.5-3.9.1-3.9-2.9-6-7.5-6M162 39.3c-2.7 7.4-7.1 17.1-11.5 23.3h-1.9c-3 0-4.5-1-6.5-4-5.4-8.3-12.2-25.9-13.1-36.8h5.3c3.4 0 5.5 2.6 5.9 4.8 1.4 7.5 3.4 15.3 7.6 23.6 3.8-7.6 7.2-18.3 8.7-28.4h4.2c3.4 0 4.6 1.5 4.6 4.8.1 1.1-.8 6-3.3 12.7m25.5 23.5h-2c-9.4 0-15.9-5.4-15.9-12.8 0-7.2 5.2-12.6 19.8-12.6h3.5v-.5c0-5.7-2.7-7.4-8.6-7.4-7.2 0-11.1 2.8-12.6 4.6h-.4v-3.2c0-4.5 4-9.9 14.5-9.9 8.9 0 16.8 4.2 16.8 18.1v9.3c-.1 8.5-6.3 14.4-15.1 14.4m5.4-18.2h-3.5c-7.5 0-9.7 1.8-9.7 5.1 0 3.1 2.5 5 6.9 5 4.3 0 6.3-2.1 6.3-6.2v-3.9zm49.9 17.6c-4.4 0-7.2-2.8-7.2-6.6v-16c0-6.8-3-9.8-8-9.8-4.3 0-7.2 3.3-7.2 9.1v23.4h-3c-4.2 0-6.9-2.8-6.9-6.6V38.1c0-8.5 5.5-17.3 17.9-17.3 9.4 0 17.1 6.4 17.1 17.8v23.5h-2.7zm27.1-15.9h-6.5c.7 5.1 5.3 8.3 11.1 8.3 4.1 0 9-.8 12.2-3.8h.4v3.1c0 5.2-3.5 9.1-14.4 9.1-9.9 0-19.6-7.9-19.6-20.3 0-13.5 8.1-21.9 19.5-21.9 8.3 0 15.9 6 15.9 15.6.1 7.5-5.4 9.9-18.6 9.9m1.9-17.1c-4.8 0-8.1 4-8.3 8.6l-.1 1.3h4.4c9.4 0 11.5-1 11.5-3.9 0-3.9-3-6-7.5-6m80.9 33.9c-7.3 0-12.8-3.8-12.8-7.9v-4.6h.4c2.1 2 7.2 3.8 12 3.8 4.9 0 7.2-1.4 7.2-4.4 0-2.3-1.4-3.4-8.3-4.4-8.4-1.2-12.5-4.6-12.5-10.7 0-7.6 6.7-14 16.9-14 9 0 12.7 4.7 12.7 8.6v3.8h-.4c-2.1-2.1-6.6-3.7-11.4-3.7-6.1 0-8 1.9-8 4.5 0 2 1.2 2.8 8 4 8.3 1.3 12.7 5 12.7 11.5.1 8.4-5.8 13.5-16.5 13.5m-37.9-11.4c-5.9 0-10.6-5-10.6-11.2 0-6.2 4.8-11.2 10.6-11.2 5.9 0 10.6 5 10.6 11.2.1 6.2-4.7 11.2-10.6 11.2m-.9-30.6c-11 0-19.9 9.4-19.9 21s8.9 21 19.9 21c11 0 19.9-9.4 19.9-21-.1-11.6-9-21-19.9-21" fill="#33706A"></path></svg>